<?xml version="1.0" encoding="UTF-8" standalone="no"?>
<svg
   class="icon icon-tabler icon-tabler-brand-4chan"
   width="24"
   height="24"
   viewBox="0 0 24 24"
   stroke-width="2"
   stroke="currentColor"
   fill="none"
   stroke-linecap="round"
   stroke-linejoin="round"
   version="1.1"
   id="svg6"
   sodipodi:docname="chan.svg"
   inkscape:version="1.3.2 (091e20ef0f, 2023-11-25, custom)"
   xmlns:inkscape="http://www.inkscape.org/namespaces/inkscape"
   xmlns:sodipodi="http://sodipodi.sourceforge.net/DTD/sodipodi-0.dtd"
   xmlns:xlink="http://www.w3.org/1999/xlink"
   xmlns="http://www.w3.org/2000/svg"
   xmlns:svg="http://www.w3.org/2000/svg">
  <defs
     id="defs6">
    <linearGradient
       id="swatch6"
       inkscape:swatch="solid">
      <stop
         style="stop-color:#2ba14f;stop-opacity:1;"
         offset="0"
         id="stop6" />
    </linearGradient>
    <linearGradient
       inkscape:collect="always"
       xlink:href="#swatch6"
       id="linearGradient6"
       x1="11.99521"
       y1="7"
       x2="21.000345"
       y2="7"
       gradientUnits="userSpaceOnUse" />
    <linearGradient
       inkscape:collect="always"
       xlink:href="#swatch6"
       id="linearGradient7"
       x1="12"
       y1="16.497774"
       x2="22"
       y2="16.497774"
       gradientUnits="userSpaceOnUse" />
    <linearGradient
       inkscape:collect="always"
       xlink:href="#swatch6"
       id="linearGradient8"
       x1="2.9996616"
       y1="17"
       x2="12.00479"
       y2="17"
       gradientUnits="userSpaceOnUse" />
    <linearGradient
       inkscape:collect="always"
       xlink:href="#swatch6"
       id="linearGradient9"
       x1="2"
       y1="7.5022347"
       x2="12"
       y2="7.5022347"
       gradientUnits="userSpaceOnUse" />
  </defs>
  <sodipodi:namedview
     id="namedview6"
     pagecolor="#ffffff"
     bordercolor="#000000"
     borderopacity="0.25"
     inkscape:showpageshadow="2"
     inkscape:pageopacity="0.0"
     inkscape:pagecheckerboard="0"
     inkscape:deskcolor="#d1d1d1"
     showgrid="false"
     inkscape:zoom="33.541667"
     inkscape:cx="12"
     inkscape:cy="12"
     inkscape:window-width="1920"
     inkscape:window-height="1011"
     inkscape:window-x="0"
     inkscape:window-y="0"
     inkscape:window-maximized="1"
     inkscape:current-layer="svg6" />
  <path
     stroke="none"
     d="M0 0h24v24H0z"
     fill="none"
     id="path1" />
  <path
     d="M14 11s6.054 -1.05 6 -4.5c-.038 -2.324 -2.485 -3.19 -3.016 -1.5c0 0 -.502 -2 -2.01 -2c-1.508 0 -2.984 3 -.974 8z"
     id="path2" />
  <path
     d="M13.98 11s6.075 -1.05 6.02 -4.5c-.038 -2.324 -2.493 -3.19 -3.025 -1.5c0 0 -.505 -2 -2.017 -2c-1.513 0 -3 3 -.977 8z"
     id="path3"
     style="stroke:url(#linearGradient6)" />
  <path
     d="M13 13.98l.062 .309l.081 .35l.075 .29l.092 .328l.11 .358l.061 .188l.139 .392c.64 1.73 1.841 3.837 3.88 3.805c2.324 -.038 3.19 -2.493 1.5 -3.025l.148 -.045l.165 -.058a4.13 4.13 0 0 0 .098 -.039l.222 -.098c.586 -.28 1.367 -.832 1.367 -1.777c0 -1.513 -3 -3 -8 -.977z"
     id="path4"
     style="stroke:url(#linearGradient7)" />
  <path
     d="M10.02 13l-.309 .062l-.35 .081l-.29 .075l-.328 .092l-.358 .11l-.188 .061l-.392 .139c-1.73 .64 -3.837 1.84 -3.805 3.88c.038 2.324 2.493 3.19 3.025 1.5l.045 .148l.058 .165l.039 .098l.098 .222c.28 .586 .832 1.367 1.777 1.367c1.513 0 3 -3 .977 -8z"
     id="path5"
     style="stroke:url(#linearGradient8)" />
  <path
     d="M11 10.02l-.062 -.309l-.081 -.35l-.075 -.29l-.092 -.328l-.11 -.358l-.128 -.382l-.148 -.399c-.658 -1.687 -1.844 -3.634 -3.804 -3.604c-2.324 .038 -3.19 2.493 -1.5 3.025l-.148 .045l-.164 .058a4.13 4.13 0 0 0 -.1 .039l-.22 .098c-.588 .28 -1.368 .832 -1.368 1.777c0 1.513 3 3 8 .977z"
     id="path6"
     style="stroke:url(#linearGradient9)" />
</svg>
